<?xml version="1.0" encoding="utf-8"?>
<!-- Generator: Adobe Illustrator 24.3.0, SVG Export Plug-In . SVG Version: 6.00 Build 0)  -->
<svg version="1.1" id="a379d9a4-f6fe-40d1-beba-a0916853bd02"
	 xmlns="http://www.w3.org/2000/svg" xmlns:xlink="http://www.w3.org/1999/xlink" x="0px" y="0px" viewBox="0 0 938.8 806.7"
	 style="enable-background:new 0 0 938.8 806.7;" xml:space="preserve">
<style type="text/css">
	.st0{fill:#FF6584;}
	.st1{fill:#E6E6E6;}
	.st2{fill:#FFB8B8;}
	.st3{fill:#2F2E41;}
	.st4{fill:#7671A4;}
	.st5{opacity:0.2;enable-background:new    ;}
	.st6{fill:#3F3D56;}
	.st7{fill:#FFFFFF;}
</style>
<circle class="st0" cx="863.4" cy="147.5" r="75.4"/>
<path class="st1" d="M95,521.8c-10.9,19-1.8,130.1-0.2,148.4c0,0.3,0.1,0.5,0.1,0.8H71.1c-0.1-0.2-0.2-0.5-0.3-0.8
	c-3.9-12.3-6.1-25-6.4-37.8C62.6,574.4,94.1,523.3,95,521.8z"/>
<path class="st1" d="M48.4,589.6c-0.7,6.6,7.3,25.1,16,42.8c8.1,16.5,16.8,32.5,19.8,37.8c0.2,0.3,0.4,0.6,0.5,0.8H66.8
	c-0.2-0.2-0.4-0.5-0.6-0.8C42.2,636.9,48.2,591.1,48.4,589.6z"/>
<rect x="0" y="669.4" class="st1" width="685" height="2.2"/>
<path class="st2" d="M76.2,706.1c-8.8-4.1-14.6-12.8-15.1-22.5l0,0c-0.5-9.7,4.3-18.9,12.5-24l41.6-25.8c24.1-10.6,37.4,0,44.9,21.6
	l-10.8,32.4l94,24.1l3.3,27.5C182,736.5,122.7,728.1,76.2,706.1z"/>
<path class="st3" d="M244.8,729.2c-3.3-9.8-9-16.9-16.6-21.6l10.6-10.2c6.9-6.6,17.4-7.2,25-1.5l42.7,32.2c3.1,2.3,4.9,6,4.7,9.9
	l0,0c0,0.7-0.1,1.3-0.2,1.9c-1.3,6.4-7.5,10.5-13.9,9.2l-27.2-5.6l-29.1,4.2C236.2,739.5,237.6,733.4,244.8,729.2z"/>
<circle class="st2" cx="212.9" cy="432.5" r="26.9"/>
<path class="st2" d="M192.5,445.7l38.7,4.6c-7.3,13.7-4.9,36.1,0,60.7l-60.3-25.4C184.6,470.3,194.4,456.2,192.5,445.7z"/>
<path class="st2" d="M275,618.6l-21.2,24.7c-8,9.4-19.3,15.4-31.6,16.8c-19.7,2-22.6-10.1-14.4-31.6c6.4-16.6,16.4-31.6,29.4-43.8
	l29-27.6c5-4.8,11.6-7.5,18.6-7.7l0,0c15.1-0.3,27.7,11.3,28.6,26.3c3.1,49.5-3.9,103.7-17.7,161.1l-22.5,1.7L275,618.6z"/>
<path class="st3" d="M271.8,795.5l-17-37.2c-2-4.5-1.4-9.7,1.5-13.7l16.9-22.7c-0.7,7.4,0.5,12.8,5.8,13.3
	c8.4-8.1,15.7-9.7,20.8,0.8l3.3,32.4l4.4,12.9c0.6,1.6,0.9,3.3,1,5c0.7,10.6-7.3,19.7-17.9,20.4l0,0
	C282.6,807.2,275.2,802.8,271.8,795.5z"/>
<path class="st3" d="M114.3,633.7l5-12.5L234.5,585c9.6-0.4,2.8,33.2,18.3,59.1c-23.8,23.6-45.7,39.5-77,27.9l-26.6,15
	c-30.7-12.4-40.3-12.9-71.1-30.4L114.3,633.7z"/>
<path class="st4" d="M138.7,496.8c1.5-8.4,7.5-15.3,15.6-18l30-9.8l28.3,25l14.1-22.5l28.7,5.7c0.2,0,0.3,0.1,0.5,0.1
	c4.4,1.2,7.1,5.7,5.9,10.2l-24.8,100c-37.4,41-81.2,59.6-121.9,42L138.7,496.8z"/>
<path class="st5" d="M178.2,714.8c-7.9,1.9-15.9-2.9-17.8-10.8l-6.9-27.9l13.3-7.5l19,22.4c1.1,1.3,1.9,2.7,2.5,4.3
	c2.9,7.6-0.9,16.1-8.5,19l0,0C179.2,714.5,178.6,714.7,178.2,714.8z"/>
<path class="st2" d="M178.2,711.5c-7.9,1.9-15.9-2.9-17.8-10.8l-6.9-27.9l13.3-7.5l19,22.4c1.1,1.3,1.9,2.7,2.5,4.3
	c2.9,7.6-0.9,16.1-8.5,19l0,0C179.2,711.2,178.6,711.4,178.2,711.5z"/>
<path class="st4" d="M105.2,593.8l16-78c2.5-12.3,10-23.1,20.7-29.8l9.9-6.2l-10.8,109l29.1,77.4l-20,13.3
	C123.8,661.3,112.2,629.7,105.2,593.8z"/>
<polygon class="st5" points="160.4,635 152.2,605.8 162.1,555.9 "/>
<path class="st3" d="M226.8,415c-4.8,1.1-5.2-6.5-9.5-6.8c-8.4-0.6-20.7,1.8-24.4,9.2c-0.6,1.2-1.5,2.3-2.5,3.2
	c-5.6,5.5-2.5,21.5-2.5,21.5c-15.2-11.9-10.5-39-2.9-39c1.4,0,2.7-0.5,3.6-1.5c5.1-5.6,11.4-9.8,18.8-11.5
	c47.4-10.7,31.9,40.1,31.9,40.1C241.3,425.2,237.8,412.6,226.8,415z"/>
<path class="st1" d="M191.4,505.4c0-1.1,0.9-1.9,1.9-1.9H227c0.1,0,0.2,0,0.3,0c1,0.2,1.7,1.1,1.6,2.1l-0.3,2.3l-2,14.2l-3.2,23.2
	l-0.8,5.8c-0.1,0.9-0.9,1.6-1.8,1.6h-21.3c-0.9,0-1.7-0.7-1.8-1.6l-0.8-5.8l-3.2-23.2l-1.9-14.2l-0.3-2.3
	C191.5,505.5,191.5,505.4,191.4,505.4z"/>
<path class="st6" d="M224.9,497.3c1,0,1.8,0.9,1.9,1.9v2.4l0,0c0,1.1-0.9,1.9-1.9,1.9h-29.4l0,0c-1.1,0-1.9-0.9-1.9-1.9v-2.4l0,0
	c0-1.1,0.9-1.9,1.9-1.9H224.9L224.9,497.3z"/>
<path class="st6" d="M187,504.7v-2.4c0-1.1,0.9-1.9,1.9-1.9c14.2,1.7,28.5,1.7,42.6,0c1.1,0,1.9,0.9,1.9,1.9v2.4l0,0l0,0
	c0,1.1-0.9,1.9-1.9,1.9c-14.2,1.5-28.5,1.5-42.6,0C187.9,506.6,187,505.7,187,504.7z"/>
<circle class="st7" cx="211" cy="527" r="8"/>
<path class="st2" d="M190.8,541.9c1.8-7.9,9.7-12.8,17.6-11l28,6.5l0.7,15.3l-28.6,6.9c-1.6,0.4-3.2,0.5-4.9,0.3
	c-8.1-0.8-13.9-8-13.1-16.1l0,0C190.5,543.2,190.6,542.6,190.8,541.9z"/>
<path class="st4" d="M231.7,532.9l50.7-5.8l-43.3,5l7.5-56.6l12.7,2.4c9.1,1.7,17.5,6,24.2,12.3l36.3,34c3.2,3,5.3,7,5.9,11.3l0,0
	c0.2,1.1,0.2,2.1,0.2,3.2c-0.2,10.6-9,19-19.6,18.7l-77.2-1.9L231.7,532.9z"/>
<path class="st1" d="M538.6,478.7c14.1,24.3,2.3,166.8,0.3,190.2c0,0.4-0.1,0.8-0.1,1.1h30.5c0.2-0.4,0.3-0.7,0.4-1.1
	c5-15.7,7.8-32,8.2-48.4C580.3,546.1,539.9,480.7,538.6,478.7z"/>
<path class="st1" d="M598.5,565.6c0.8,8.5-9.4,32.2-20.6,54.9c-10.4,21.2-21.6,41.6-25.4,48.4c-0.2,0.4-0.4,0.8-0.6,1.1h22.9
	c0.3-0.4,0.5-0.7,0.8-1.1C606.5,626.3,598.7,567.5,598.5,565.6z"/>
<path class="st6" d="M517.6,183.7l24.8-9c0,0-8.2-4.1-15.7-1c-1.6-4.2-5.6-9.5-15.2-8.4l12.4,9.9
	C521.1,177.3,518.9,180.2,517.6,183.7z"/>
<path class="st6" d="M143.8,132.6l24.8-9c0,0-8.2-4.1-15.7-1c-1.6-4.2-5.6-9.5-15.2-8.4l12.4,9.9C147.2,126.2,145,129.1,143.8,132.6
	z"/>
<path class="st6" d="M215.2,264.3l24.8-9c0,0-8.2-4.1-15.7-1c-1.6-4.2-5.6-9.5-15.2-8.4l12.4,9.9C218.7,258,216.5,260.9,215.2,264.3
	z"/>
<ellipse transform="matrix(0.1774 -0.9841 0.9841 0.1774 394.0439 923.4232)" class="st1" cx="749.4" cy="226" rx="228.7" ry="112.1"/>
<path class="st6" d="M767.8,183.1c1.2-3.3-4.2-4.8-5.5-1.6c-1.2,3.3-2.4,6.6-3.6,9.9c-9.6,27.1-18.2,54.5-25.6,82.2
	c-7.4,27.8-13.7,55.8-18.9,84c-5.1,28.2-9.2,56.6-12.1,85.1c-2.9,28.4-4.7,56.9-5.3,85.5c-0.6,28.8-0.1,57.5,1.6,86.1
	c0.2,3.6,5.8,3.6,5.6,0c-0.2-3.5-0.4-7-0.6-10.5c-1.4-28.6-1.6-57.2-0.7-85.7c0.9-28.5,2.9-57,6.1-85.4c3.2-28.4,7.5-56.6,13-84.7
	c5.4-28,12-55.8,19.7-83.4C749.2,237.1,757.9,209.9,767.8,183.1L767.8,183.1z"/>
<path class="st6" d="M729.4,288.6c0.8,1.3,2.5,1.8,3.8,1c1.3-0.8,1.7-2.5,1-3.8l-7-15.4l-24.7-54.8c-0.8-1.3-2.5-1.8-3.8-1
	s-1.7,2.5-1,3.8l7,15.4L729.4,288.6L729.4,288.6z"/>
<path class="st6" d="M723.9,326.1c-1.4,0.4-2.3,1.9-1.9,3.4c0.4,1.4,1.9,2.3,3.4,1.9l15.9-5.9l56.3-21.1c1.4-0.4,2.3-1.9,1.9-3.4
	c-0.4-1.4-1.9-2.3-3.4-1.9l-15.9,5.9L723.9,326.1L723.9,326.1z"/>
<path class="st1" d="M636.8,625c63.1-22.3,130.9,0,130.9,0"/>
</svg>
