<?xml version="1.0" encoding="utf-8"?>
<!-- Generator: Adobe Illustrator 24.3.0, SVG Export Plug-In . SVG Version: 6.00 Build 0)  -->
<svg version="1.1" id="Layer_1" xmlns="http://www.w3.org/2000/svg" xmlns:xlink="http://www.w3.org/1999/xlink" x="0px" y="0px"
	 viewBox="0 0 24 24" style="enable-background:new 0 0 24 24;" xml:space="preserve">
<style type="text/css">
	.st0{fill:#1A6FA6;}
</style>
<path class="st0" d="M9.7,8.5l-6.9,4c-1,0.6-1.3,1.8-0.7,2.7l2,3.5c0.6,1,1.8,1.3,2.7,0.7l0.9-0.5l2,3.5c0.3,0.5,0.9,0.6,1.4,0.4
	l1.7-1c0.5-0.3,0.6-0.9,0.4-1.4l-2-3.5l2.6-1.5l6.3,1L12,2.5L9.7,8.5 M16.1,13.6l-2.5-0.4l-7.8,4.5l-2-3.5l7.8-4.5l0.9-2.4
	L16.1,13.6 M19.9,7.2c0.9,1.5,0.8,3.3-0.2,4.7l-4-6.9C17.5,4.9,19.1,5.7,19.9,7.2z"/>
</svg>
